<svg width="38" height="38" viewBox="0 0 38 38" fill="none" xmlns="http://www.w3.org/2000/svg">
<path d="M18.8337 24.7191C22.0841 24.7191 24.7191 22.0841 24.7191 18.8337C24.7191 15.5832 22.0841 12.9482 18.8337 12.9482C15.5832 12.9482 12.9482 15.5832 12.9482 18.8337C12.9482 22.0841 15.5832 24.7191 18.8337 24.7191Z" stroke="white" stroke-width="2.35417" stroke-miterlimit="10"/>
<path d="M25.3073 5.29688H12.3594C8.45886 5.29688 5.29688 8.45886 5.29688 12.3594V25.3073C5.29688 29.2078 8.45886 32.3698 12.3594 32.3698H25.3073C29.2078 32.3698 32.3698 29.2078 32.3698 25.3073V12.3594C32.3698 8.45886 29.2078 5.29688 25.3073 5.29688Z" stroke="white" stroke-width="2.35417" stroke-linecap="round" stroke-linejoin="round"/>
<path d="M26.4844 12.9482C27.4595 12.9482 28.25 12.1577 28.25 11.1826C28.25 10.2075 27.4595 9.41699 26.4844 9.41699C25.5092 9.41699 24.7188 10.2075 24.7188 11.1826C24.7188 12.1577 25.5092 12.9482 26.4844 12.9482Z" fill="white"/>
</svg>
