<svg width="213" height="98" viewBox="0 0 213 98" fill="none" xmlns="http://www.w3.org/2000/svg">
<path d="M10.944 2.70228C12.312 2.24628 13.5497 2.01828 14.6571 2.01828C16.3509 2.01828 17.67 2.62086 18.6146 3.826C19.5591 4.99857 20.292 6.676 20.8131 8.85828C20.976 9.50971 21.3017 10.9429 21.7903 13.1577C22.3114 15.3726 22.7349 17.164 23.0606 18.532C24.0703 22.7989 24.9823 26.1049 25.7966 28.45C26.6434 30.7951 27.9789 32.668 29.8029 34.0686C29.412 35.0457 28.7606 35.8274 27.8486 36.4137C26.9691 37 26.0083 37.2931 24.966 37.2931C22.5883 37.2931 20.8457 35.5017 19.7383 31.9189C19.2171 30.2577 18.7449 28.6291 18.3214 27.0331C17.1814 27.424 15.7646 27.6194 14.0709 27.6194C12.4097 27.6194 10.3577 27.4403 7.91486 27.082C6.90514 31.0231 6.40029 33.9871 6.40029 35.974C6.40029 36.3974 6.41657 36.7069 6.44914 36.9023C6.02571 36.9674 5.30914 37 4.29943 37C3.28971 37 2.394 36.6906 1.61229 36.0717C0.863143 35.4203 0.488571 34.5083 0.488571 33.3357C0.488571 31.7071 2.052 26.9354 5.17886 19.0206C8.30571 11.1057 10.2274 5.66628 10.944 2.70228ZM9.03857 22.978C10.3414 23.1409 11.6606 23.2223 12.996 23.2223C14.364 23.2223 15.8134 23.0757 17.3443 22.7826C17.0511 21.4471 16.0577 16.3334 14.364 7.44143C12.3446 12.6854 10.5694 17.8643 9.03857 22.978ZM69.926 17.2617L69.4375 27.7171C69.4375 30.8766 69.8935 33.8731 70.8055 36.7069C69.8935 37.0977 68.8512 37.2931 67.6786 37.2931C64.91 37.2931 63.5257 35.746 63.5257 32.6517C63.5257 31.2511 63.7049 28.906 64.0632 25.6163C64.4215 22.294 64.6006 20.2094 64.6006 19.3626C64.6006 17.734 63.9329 16.9197 62.5975 16.9197C61.1317 16.9197 59.3729 18.418 57.3209 21.4146C55.3015 24.4111 54.2917 26.7563 54.2917 28.45C54.4546 31.0231 54.9106 33.58 55.6597 36.1206C54.422 36.5114 53.3797 36.7069 52.5329 36.7069C49.7643 36.7069 48.38 35.1597 48.38 32.0654C48.38 30.7626 48.5592 28.5803 48.9175 25.5186C49.2757 22.4569 49.4549 20.5351 49.4549 19.7534C49.4549 18.1249 48.722 17.3106 47.2563 17.3106C46.2466 17.3106 45.0903 18.0597 43.7875 19.558C42.4846 21.0563 41.3772 22.7174 40.4652 24.5414C39.5857 26.3329 39.1135 27.766 39.0483 28.8409C39.2112 31.642 39.5369 34.1663 40.0255 36.4137C38.9832 36.8046 37.892 37 36.752 37C35.6446 37 34.7326 36.7394 34.016 36.2183C33.332 35.6646 32.99 34.9154 32.99 33.9709C32.99 32.9937 33.1366 31.2674 33.4297 28.792C33.7229 26.284 33.8695 23.8086 33.8695 21.3657C33.8695 18.8903 33.4949 16.0566 32.7457 12.8646C33.788 12.4737 34.8955 12.2783 36.068 12.2783C37.2406 12.2783 38.1852 12.6203 38.9017 13.3043C39.6509 13.9883 40.0255 14.9003 40.0255 16.0403C40.0255 16.6266 39.9115 18.0597 39.6835 20.3397C40.8886 18.19 42.4195 16.3334 44.276 14.77C46.1326 13.174 47.9892 12.376 49.8457 12.376C53.1355 12.376 54.7803 14.1349 54.7803 17.6526C54.7803 18.532 54.7315 19.5091 54.6337 20.584C55.8389 18.304 57.386 16.3009 59.2752 14.5746C61.1969 12.8483 63.1023 11.9851 64.9915 11.9851C68.2812 11.9851 69.926 13.744 69.926 17.2617ZM98.1063 13.9883C97.2269 17.734 96.7872 21.496 96.7872 25.2743C96.7872 29.02 97.2106 32.7331 98.0574 36.4137C96.8849 36.8046 95.6797 37 94.442 37C93.2043 37 92.3412 36.6417 91.8526 35.9251C91.364 35.176 91.1197 34.1174 91.1197 32.7494C91.1197 31.3489 91.3314 29.4434 91.7549 27.0331C89.4423 31.984 87.2112 35.1109 85.0614 36.4137C84.0843 37 83.0746 37.2931 82.0323 37.2931C79.5569 37.2931 77.6351 36.3811 76.2671 34.5571C74.8991 32.7006 74.2151 30.4043 74.2151 27.6683C74.2151 23.4991 75.3714 19.8511 77.684 16.7243C79.9966 13.5649 82.9931 11.9851 86.6737 11.9851C90.3869 11.9851 94.1977 12.6529 98.1063 13.9883ZM91.706 16.9197C89.9797 16.3986 88.514 16.138 87.3089 16.138C84.866 16.138 83.042 16.6754 81.8369 17.7503C80.7294 20.4863 80.1757 23.2711 80.1757 26.1049C80.1757 27.6031 80.4037 29.1177 80.8597 30.6486C81.3483 32.1794 82.0811 32.9449 83.0583 32.9449C84.1983 32.9449 85.664 31.2674 87.4554 27.9126C89.2469 24.5577 90.6637 20.8934 91.706 16.9197ZM109.584 36.4137C108.574 36.8046 107.499 37 106.359 37C105.219 37 104.291 36.7394 103.574 36.2183C102.89 35.6646 102.548 34.9154 102.548 33.9709C102.548 32.9937 102.695 31.2349 102.988 28.6943C103.281 26.1537 103.428 23.6946 103.428 21.3169C103.428 18.9066 103.053 16.0891 102.304 12.8646C103.346 12.4737 104.372 12.2783 105.382 12.2783C106.392 12.2783 107.255 12.6203 107.972 13.3043C108.721 13.9883 109.095 14.9003 109.095 16.0403C109.095 16.6266 108.998 17.506 108.802 18.6786C108.607 19.8186 108.493 20.6817 108.46 21.268C109.73 18.3691 111.229 16.1054 112.955 14.4769C114.714 12.8157 116.456 11.9851 118.183 11.9851C119.388 11.9851 120.349 12.4086 121.065 13.2554C121.782 14.1023 122.14 15.1771 122.14 16.48C122.14 17.7503 121.814 18.7926 121.163 19.6069C120.512 20.3886 119.697 20.7794 118.72 20.7794C117.776 20.7794 117.01 20.6817 116.424 20.4863C116.522 20.0954 116.57 19.7371 116.57 19.4114C116.57 18.076 116.098 17.4083 115.154 17.4083C113.72 17.4083 112.369 18.8577 111.098 21.7566C109.861 24.6229 109.03 27.31 108.607 29.818C108.77 32.2609 109.095 34.4594 109.584 36.4137ZM124.927 12.718C125.969 12.4249 127.011 12.2783 128.053 12.2783C129.128 12.2783 130.04 12.604 130.789 13.2554C131.539 13.9069 131.913 14.7537 131.913 15.796C131.913 16.8057 131.734 18.5809 131.376 21.1214C131.05 23.6294 130.887 25.5837 130.887 26.9843C130.887 30.6323 131.229 33.7754 131.913 36.4137C130.903 36.8046 129.812 37 128.64 37C127.467 37 126.539 36.7394 125.855 36.2183C125.171 35.6646 124.829 34.8829 124.829 33.8731C124.829 32.8309 125.024 31.1371 125.415 28.792C125.806 26.4469 126.001 24.5089 126.001 22.978C126.001 18.9066 125.643 15.4866 124.927 12.718ZM125.562 1.67628C126.702 1.15514 127.825 0.89457 128.933 0.89457C130.04 0.89457 130.855 1.18771 131.376 1.774C131.929 2.32771 132.206 3.15828 132.206 4.26571C132.206 5.37314 131.832 6.35028 131.083 7.19714C130.366 8.044 129.421 8.46743 128.249 8.46743C125.839 8.46743 124.633 7.21343 124.633 4.70543C124.633 3.598 124.943 2.58828 125.562 1.67628ZM137.721 0.943426C138.764 0.552569 139.839 0.35714 140.946 0.35714C142.053 0.35714 142.965 0.731711 143.682 1.48085C144.431 2.19743 144.806 3.19086 144.806 4.46114C144.806 5.69886 144.627 8.20686 144.268 11.9851C143.943 15.7309 143.78 18.6786 143.78 20.8283C143.78 26.1374 144.154 31.3326 144.903 36.4137C143.861 36.8046 142.754 37 141.581 37C139.073 37 137.819 35.7786 137.819 33.3357C137.819 32.1631 137.998 29.8669 138.357 26.4469C138.715 22.9943 138.894 20.2257 138.894 18.1411C138.894 11.2034 138.503 5.47086 137.721 0.943426ZM165.793 0.943426C166.835 0.552569 167.91 0.35714 169.017 0.35714C170.125 0.35714 171.037 0.731711 171.753 1.48085C172.47 2.19743 172.828 3.10943 172.828 4.21686C172.828 5.29171 172.665 7.86486 172.339 11.9363C172.014 15.9751 171.851 19.9651 171.851 23.9063C171.851 27.8149 172.242 31.984 173.023 36.4137C171.851 36.8046 170.629 37 169.359 37C167.209 37 166.135 35.4854 166.135 32.4563C166.135 31.4466 166.346 29.6389 166.77 27.0331C165.402 29.932 164.18 32.0817 163.105 33.4823C162.063 34.8829 161.037 35.8763 160.027 36.4626C159.05 37.0163 158.008 37.2931 156.901 37.2931C154.425 37.2931 152.52 36.3811 151.184 34.5571C149.881 32.7331 149.23 30.4857 149.23 27.8149C149.23 25.144 149.702 22.636 150.647 20.2909C151.624 17.9131 153.073 15.9426 154.995 14.3791C156.949 12.7831 159.018 11.9851 161.2 11.9851C163.382 11.9851 165.271 12.2783 166.867 12.8646C166.802 8.66286 166.444 4.68914 165.793 0.943426ZM166.867 17.0174C165.271 16.4311 163.545 16.138 161.689 16.138C159.832 16.138 158.236 16.6754 156.901 17.7503C155.793 20.3886 155.239 23.3363 155.239 26.5934C155.239 28.0917 155.451 29.5249 155.875 30.8929C156.298 32.2609 156.998 32.9449 157.975 32.9449C159.474 32.9449 161.167 31.2674 163.057 27.9126C164.978 24.5577 166.249 20.926 166.867 17.0174ZM186.44 37.5863C182.858 37.5863 180.219 36.544 178.526 34.4594C176.832 32.3423 175.985 29.4109 175.985 25.6651C175.985 21.8869 177.109 18.6134 179.356 15.8449C181.604 13.0763 184.486 11.692 188.004 11.692C195.235 11.692 198.85 15.7634 198.85 23.9063C198.85 27.7171 197.678 30.958 195.332 33.6289C192.987 36.2671 190.023 37.5863 186.44 37.5863ZM182.923 17.0663C182.336 18.9554 182.043 20.8446 182.043 22.7337C182.043 24.6229 182.108 26.0886 182.239 27.1309C182.369 28.1731 182.613 29.2154 182.972 30.2577C183.721 32.3749 185.186 33.4334 187.369 33.4334C189.584 33.4334 191.033 32.8471 191.717 31.6746C192.434 30.502 192.792 28.6943 192.792 26.2514C192.792 19.3137 191.147 15.8449 187.857 15.8449C185.968 15.8449 184.323 16.252 182.923 17.0663ZM38.0597 65.0474L37.8154 73.1089C37.8154 77.5386 37.9457 81.5123 38.2063 85.03C38.4669 88.5151 39.0531 92.3097 39.9651 96.4137C39.2486 97 38.1086 97.2931 36.5451 97.2931C33.516 97.2931 32.0014 95.974 32.0014 93.3357C32.0014 91.1534 32.0991 87.8149 32.2946 83.32C32.5226 78.8251 32.6366 75.3074 32.6366 72.7669C30.8777 75.3074 29.0211 78.4506 27.0669 82.1963C25.1451 85.9094 24.1843 88.1894 24.1843 89.0363C24.1843 89.8831 24.2657 90.5346 24.4286 90.9906C23.712 91.4466 22.7511 91.6746 21.546 91.6746C20.3734 91.6746 19.38 91.3489 18.5657 90.6974C17.784 90.046 17.1163 89.1503 16.5626 88.0103C16.0414 86.8703 15.0969 84.6391 13.7289 81.3169C12.3934 77.962 11.172 75.0794 10.0646 72.6691C9.21771 77.9131 8.79429 82.5546 8.79429 86.5934C8.79429 90.6323 8.92457 93.9057 9.18514 96.4137C8.14286 96.8046 7.10057 97 6.05829 97C3.97371 97 2.93143 95.9577 2.93143 93.8731C2.93143 92.2771 3.28971 89.1014 4.00629 84.346C4.75543 79.558 5.13 75.5191 5.13 72.2294C5.13 68.9397 4.95086 65.8617 4.59257 62.9954C6.35143 62.5394 7.71943 62.3114 8.69657 62.3114C10.488 62.3114 11.6931 62.9466 12.312 64.2169C13.2891 66.2689 14.7223 69.5423 16.6114 74.0371C18.5331 78.4994 20.0966 81.9357 21.3017 84.346C21.6274 83.662 22.3766 82.1963 23.5491 79.9489C24.7543 77.6689 25.7477 75.7309 26.5294 74.1349C27.3437 72.5063 28.158 70.5846 28.9723 68.3697C29.8191 66.1223 30.3566 64.168 30.5846 62.5069C31.7571 62.1811 32.8971 62.0183 34.0046 62.0183C35.1446 62.0183 36.1054 62.2626 36.8871 62.7511C37.6689 63.2397 38.0597 64.0051 38.0597 65.0474ZM49.0675 85.9094C49.0675 88.2546 49.442 90.1111 50.1912 91.4791C50.9403 92.8146 52.1943 93.4823 53.9532 93.4823C55.712 93.4823 57.08 92.896 58.0572 91.7234C59.0669 90.5183 59.5717 89.0689 59.5717 87.3751C60.6792 87.3751 61.64 87.652 62.4543 88.2057C63.2686 88.7594 63.6757 89.5249 63.6757 90.502C63.6757 92.5214 62.6009 94.2151 60.4512 95.5831C58.3015 96.9186 56.0377 97.5863 53.66 97.5863C49.9469 97.5863 47.2597 96.5929 45.5986 94.606C43.9375 92.5866 43.1069 89.6063 43.1069 85.6651C43.1069 81.724 44.2143 78.418 46.4292 75.7471C48.6766 73.0437 51.6569 71.692 55.37 71.692C57.9106 71.692 59.9463 72.2783 61.4772 73.4509C63.0406 74.5909 63.8223 76.3823 63.8223 78.8251C63.8223 81.2354 62.7149 83.0594 60.5 84.2971C58.3177 85.5023 55.6469 86.1049 52.4875 86.1049C51.38 86.1049 50.24 86.0397 49.0675 85.9094ZM49.1163 82.0497C50.0935 82.2451 51.1195 82.3429 52.1943 82.3429C54.5395 82.3429 56.51 81.9031 58.106 81.0237C58.3015 80.242 58.3992 79.6231 58.3992 79.1671C58.3992 78.0271 57.992 77.164 57.1777 76.5777C56.3635 75.9914 55.2397 75.6983 53.8066 75.6983C52.406 75.6983 51.1357 76.1543 49.9957 77.0663C49.4095 78.76 49.1163 80.4211 49.1163 82.0497ZM75.6129 96.4137C74.6032 96.8046 73.5284 97 72.3884 97C71.2484 97 70.3201 96.7394 69.6035 96.2183C68.9195 95.6646 68.5775 94.9154 68.5775 93.9709C68.5775 92.9937 68.7241 91.2349 69.0172 88.6943C69.3104 86.1537 69.4569 83.6946 69.4569 81.3169C69.4569 78.9066 69.0824 76.0891 68.3332 72.8646C69.3755 72.4737 70.4015 72.2783 71.4112 72.2783C72.4209 72.2783 73.2841 72.6203 74.0006 73.3043C74.7498 73.9883 75.1244 74.9003 75.1244 76.0403C75.1244 76.6266 75.0266 77.506 74.8312 78.6786C74.6358 79.8186 74.5218 80.6817 74.4892 81.268C75.7595 78.3691 77.2578 76.1054 78.9841 74.4769C80.7429 72.8157 82.4855 71.9851 84.2118 71.9851C85.4169 71.9851 86.3778 72.4086 87.0944 73.2554C87.8109 74.1023 88.1692 75.1771 88.1692 76.48C88.1692 77.7503 87.8435 78.7926 87.1921 79.6069C86.5406 80.3886 85.7264 80.7794 84.7492 80.7794C83.8046 80.7794 83.0392 80.6817 82.4529 80.4863C82.5506 80.0954 82.5995 79.7371 82.5995 79.4114C82.5995 78.076 82.1272 77.4083 81.1826 77.4083C79.7495 77.4083 78.3978 78.8577 77.1275 81.7566C75.8898 84.6229 75.0592 87.31 74.6358 89.818C74.7986 92.2609 75.1244 94.4594 75.6129 96.4137ZM100.483 97.5863C96.9976 97.5863 94.3267 96.658 92.4702 94.8014C90.6136 92.9449 89.6853 90.274 89.6853 86.7889C89.6853 82.5546 90.8742 78.988 93.2519 76.0891C95.6296 73.1577 98.789 71.692 102.73 71.692C104.978 71.692 106.802 72.148 108.202 73.06C109.603 73.9394 110.303 75.2586 110.303 77.0174C110.303 78.1574 109.847 79.1834 108.935 80.0954C108.023 80.9749 106.997 81.4146 105.857 81.4146C105.596 81.4146 105.271 81.382 104.88 81.3169C104.978 80.8934 105.026 80.5189 105.026 80.1931C105.026 79.0206 104.717 78.0271 104.098 77.2129C103.479 76.3986 102.453 75.9914 101.02 75.9914C99.587 75.9914 98.2516 76.5777 97.0139 77.7503C96.1344 80.0303 95.6947 82.8803 95.6947 86.3003C95.6947 90.958 97.4536 93.2869 100.971 93.2869C102.86 93.2869 104.261 92.6843 105.173 91.4791C106.118 90.2414 106.59 88.8571 106.59 87.3263C107.697 87.3263 108.658 87.6031 109.472 88.1569C110.287 88.7106 110.694 89.476 110.694 90.4531C110.694 92.5703 109.603 94.2966 107.42 95.632C105.271 96.9349 102.958 97.5863 100.483 97.5863ZM137.326 73.9883C136.446 77.734 136.006 81.496 136.006 85.2743C136.006 89.02 136.43 92.7331 137.277 96.4137C136.104 96.8046 134.899 97 133.661 97C132.424 97 131.56 96.6417 131.072 95.9251C130.583 95.176 130.339 94.1174 130.339 92.7494C130.339 91.3489 130.551 89.4434 130.974 87.0331C128.662 91.984 126.43 95.1109 124.281 96.4137C123.304 97 122.294 97.2931 121.252 97.2931C118.776 97.2931 116.854 96.3811 115.486 94.5571C114.118 92.7006 113.434 90.4043 113.434 87.6683C113.434 83.4991 114.591 79.8511 116.903 76.7243C119.216 73.5649 122.212 71.9851 125.893 71.9851C129.606 71.9851 133.417 72.6529 137.326 73.9883ZM130.925 76.9197C129.199 76.3986 127.733 76.138 126.528 76.138C124.085 76.138 122.261 76.6754 121.056 77.7503C119.949 80.4863 119.395 83.2711 119.395 86.1049C119.395 87.6031 119.623 89.1177 120.079 90.6486C120.568 92.1794 121.3 92.9449 122.278 92.9449C123.418 92.9449 124.883 91.2674 126.675 87.9126C128.466 84.5577 129.883 80.8934 130.925 76.9197ZM157.109 60.9434C158.151 60.5526 159.226 60.3571 160.334 60.3571C161.441 60.3571 162.353 60.7317 163.07 61.4809C163.786 62.1974 164.144 63.1094 164.144 64.2169C164.144 65.2917 163.982 67.8649 163.656 71.9363C163.33 75.9751 163.167 79.9651 163.167 83.9063C163.167 87.8149 163.558 91.984 164.34 96.4137C163.167 96.8046 161.946 97 160.676 97C158.526 97 157.451 95.4854 157.451 92.4563C157.451 91.4466 157.663 89.6389 158.086 87.0331C156.718 89.932 155.497 92.0817 154.422 93.4823C153.38 94.8829 152.354 95.8763 151.344 96.4626C150.367 97.0163 149.324 97.2931 148.217 97.2931C145.742 97.2931 143.836 96.3811 142.501 94.5571C141.198 92.7331 140.546 90.4857 140.546 87.8149C140.546 85.144 141.019 82.636 141.963 80.2909C142.94 77.9131 144.39 75.9426 146.312 74.3791C148.266 72.7831 150.334 71.9851 152.516 71.9851C154.699 71.9851 156.588 72.2783 158.184 72.8646C158.119 68.6629 157.76 64.6891 157.109 60.9434ZM158.184 77.0174C156.588 76.4311 154.862 76.138 153.005 76.138C151.148 76.138 149.552 76.6754 148.217 77.7503C147.11 80.3886 146.556 83.3363 146.556 86.5934C146.556 88.0917 146.768 89.5249 147.191 90.8929C147.614 92.2609 148.315 92.9449 149.292 92.9449C150.79 92.9449 152.484 91.2674 154.373 87.9126C156.295 84.5577 157.565 80.926 158.184 77.0174ZM177.757 97.5863C174.174 97.5863 171.536 96.544 169.842 94.4594C168.148 92.3423 167.301 89.4109 167.301 85.6651C167.301 81.8869 168.425 78.6134 170.673 75.8449C172.92 73.0763 175.803 71.692 179.32 71.692C186.551 71.692 190.167 75.7634 190.167 83.9063C190.167 87.7171 188.994 90.958 186.649 93.6289C184.304 96.2671 181.34 97.5863 177.757 97.5863ZM174.239 77.0663C173.653 78.9554 173.36 80.8446 173.36 82.7337C173.36 84.6229 173.425 86.0886 173.555 87.1309C173.685 88.1731 173.93 89.2154 174.288 90.2577C175.037 92.3749 176.503 93.4334 178.685 93.4334C180.9 93.4334 182.349 92.8471 183.033 91.6746C183.75 90.502 184.108 88.6943 184.108 86.2514C184.108 79.3137 182.463 75.8449 179.174 75.8449C177.285 75.8449 175.64 76.252 174.239 77.0663ZM198.357 88.108C198.26 88.564 198.211 88.9386 198.211 89.2317C198.211 90.5671 198.602 91.5931 199.383 92.3097C200.198 93.0263 201.272 93.3846 202.608 93.3846C203.976 93.3846 205.1 93.1403 205.979 92.6517C206.891 92.1306 207.347 91.3651 207.347 90.3554C207.347 89.3457 206.858 88.5477 205.881 87.9614C204.937 87.3426 203.78 86.854 202.412 86.4957C201.077 86.1374 199.725 85.7466 198.357 85.3231C196.989 84.8671 195.817 84.1669 194.84 83.2223C193.895 82.2777 193.423 81.0889 193.423 79.6557C193.423 77.4083 194.612 75.5191 196.989 73.9883C199.367 72.4574 201.859 71.692 204.464 71.692C207.331 71.692 209.513 72.2783 211.011 73.4509C211.891 74.1349 212.33 75.0469 212.33 76.1869C212.33 77.2943 211.891 78.2063 211.011 78.9229C210.164 79.6069 209.122 79.9489 207.884 79.9489C207.624 79.9489 207.298 79.9163 206.907 79.8511C207.005 79.4277 207.054 79.0531 207.054 78.7274C207.054 77.7829 206.696 77.0663 205.979 76.5777C205.262 76.0891 204.285 75.8449 203.048 75.8449C201.842 75.8449 200.735 76.0891 199.725 76.5777C199.334 77.0989 199.139 77.7666 199.139 78.5809C199.139 79.3951 199.611 80.0629 200.556 80.584C201.5 81.0726 202.64 81.5123 203.976 81.9031C205.344 82.2614 206.712 82.6849 208.08 83.1734C209.448 83.6294 210.604 84.3623 211.549 85.372C212.493 86.3491 212.966 87.5869 212.966 89.0851C212.966 91.528 211.744 93.5637 209.301 95.1923C206.891 96.7883 204.399 97.5863 201.826 97.5863C199.253 97.5863 197.12 97.1303 195.426 96.2183C193.765 95.2737 192.934 93.8569 192.934 91.9677C192.934 90.7951 193.358 89.8506 194.204 89.134C195.084 88.3849 196.142 88.0103 197.38 88.0103C197.641 88.0103 197.966 88.0429 198.357 88.108Z" fill="white"/>
</svg>
