<svg width="275" height="89" viewBox="0 0 275 89" fill="none" xmlns="http://www.w3.org/2000/svg">
<path d="M104.307 11.3838C105.425 11.0113 106.436 10.8251 107.34 10.8251C108.723 10.8251 109.801 11.3173 110.572 12.3015C111.344 13.2592 111.942 14.6292 112.368 16.4115C112.501 16.9436 112.767 18.114 113.166 19.923C113.591 21.7319 113.937 23.195 114.203 24.3123C115.028 27.7971 115.773 30.4972 116.438 32.4125C117.129 34.3279 118.22 35.8575 119.71 37.0013C119.391 37.7994 118.859 38.4378 118.114 38.9167C117.395 39.3955 116.611 39.6349 115.759 39.6349C113.818 39.6349 112.394 38.1718 111.49 35.2456C111.064 33.8889 110.679 32.5588 110.333 31.2553C109.402 31.5746 108.244 31.7342 106.861 31.7342C105.504 31.7342 103.829 31.5879 101.833 31.2952C101.009 34.5141 100.596 36.9348 100.596 38.5575C100.596 38.9034 100.61 39.1561 100.636 39.3157C100.29 39.3689 99.7052 39.3955 98.8806 39.3955C98.0559 39.3955 97.3244 39.1428 96.6859 38.6374C96.0741 38.1053 95.7682 37.3605 95.7682 36.4028C95.7682 35.0727 97.0451 31.1755 99.5988 24.7113C102.153 18.247 103.722 13.8045 104.307 11.3838ZM102.751 27.9434C103.815 28.0764 104.893 28.1429 105.983 28.1429C107.101 28.1429 108.284 28.0232 109.535 27.7838C109.295 26.6931 108.484 22.5166 107.101 15.2543C105.451 19.5372 104.001 23.7669 102.751 27.9434ZM152.479 23.2748L152.08 31.814C152.08 34.3944 152.453 36.8417 153.198 39.1561C152.453 39.4753 151.601 39.6349 150.644 39.6349C148.383 39.6349 147.252 38.3713 147.252 35.8442C147.252 34.7003 147.398 32.7849 147.691 30.0982C147.984 27.3848 148.13 25.6823 148.13 24.9906C148.13 23.6605 147.585 22.9955 146.494 22.9955C145.297 22.9955 143.86 24.2192 142.184 26.6665C140.535 29.1139 139.71 31.0292 139.71 32.4125C139.843 34.5141 140.216 36.6023 140.828 38.6773C139.817 38.9965 138.966 39.1561 138.274 39.1561C136.013 39.1561 134.882 37.8925 134.882 35.3653C134.882 34.3013 135.029 32.5189 135.321 30.0184C135.614 27.5178 135.76 25.9483 135.76 25.3098C135.76 23.9797 135.162 23.3147 133.964 23.3147C133.14 23.3147 132.195 23.9265 131.131 25.1502C130.067 26.3739 129.163 27.7306 128.418 29.2203C127.7 30.6834 127.314 31.8539 127.261 32.7317C127.394 35.0195 127.66 37.0811 128.059 38.9167C127.208 39.2359 126.316 39.3955 125.385 39.3955C124.481 39.3955 123.736 39.1827 123.151 38.7571C122.592 38.3048 122.313 37.693 122.313 36.9215C122.313 36.1235 122.433 34.7136 122.672 32.6918C122.911 30.6435 123.031 28.6218 123.031 26.6266C123.031 24.6049 122.725 22.2905 122.113 19.6835C122.965 19.3643 123.869 19.2047 124.827 19.2047C125.784 19.2047 126.556 19.484 127.141 20.0427C127.753 20.6013 128.059 21.3462 128.059 22.2772C128.059 22.7561 127.966 23.9265 127.78 25.7887C128.764 24.0329 130.014 22.5166 131.53 21.2397C133.047 19.9363 134.563 19.2845 136.079 19.2845C138.766 19.2845 140.109 20.721 140.109 23.594C140.109 24.3123 140.07 25.1103 139.99 25.9882C140.974 24.126 142.238 22.49 143.781 21.0801C145.35 19.6702 146.906 18.9653 148.449 18.9653C151.136 18.9653 152.479 20.4018 152.479 23.2748ZM175.495 20.6013C174.777 23.6605 174.417 26.733 174.417 29.8188C174.417 32.8781 174.763 35.9107 175.455 38.9167C174.497 39.2359 173.513 39.3955 172.502 39.3955C171.491 39.3955 170.786 39.1029 170.387 38.5176C169.988 37.9058 169.789 37.0412 169.789 35.924C169.789 34.7801 169.962 33.2239 170.307 31.2553C168.419 35.2988 166.597 37.8526 164.841 38.9167C164.043 39.3955 163.218 39.6349 162.367 39.6349C160.345 39.6349 158.776 38.8901 157.658 37.4004C156.541 35.8841 155.982 34.0086 155.982 31.7741C155.982 28.369 156.927 25.3896 158.815 22.8359C160.704 20.2555 163.152 18.9653 166.158 18.9653C169.19 18.9653 172.303 19.5106 175.495 20.6013ZM170.268 22.9955C168.858 22.5698 167.661 22.357 166.676 22.357C164.681 22.357 163.191 22.796 162.207 23.6738C161.303 25.9084 160.851 28.1828 160.851 30.4972C160.851 31.7209 161.037 32.9579 161.409 34.2081C161.808 35.4584 162.407 36.0836 163.205 36.0836C164.136 36.0836 165.333 34.7136 166.796 31.9736C168.259 29.2336 169.416 26.2409 170.268 22.9955ZM184.869 38.9167C184.044 39.2359 183.166 39.3955 182.235 39.3955C181.304 39.3955 180.546 39.1827 179.961 38.7571C179.402 38.3048 179.123 37.693 179.123 36.9215C179.123 36.1235 179.243 34.687 179.482 32.612C179.721 30.5371 179.841 28.5287 179.841 26.5867C179.841 24.6182 179.535 22.3171 178.923 19.6835C179.775 19.3643 180.613 19.2047 181.437 19.2047C182.262 19.2047 182.967 19.484 183.552 20.0427C184.164 20.6013 184.47 21.3462 184.47 22.2772C184.47 22.7561 184.39 23.4743 184.23 24.432C184.071 25.363 183.978 26.068 183.951 26.5468C184.989 24.1793 186.212 22.3304 187.622 21.0003C189.059 19.6436 190.482 18.9653 191.892 18.9653C192.876 18.9653 193.661 19.3111 194.246 20.0028C194.831 20.6944 195.124 21.5723 195.124 22.6363C195.124 23.6738 194.858 24.5251 194.326 25.1901C193.794 25.8286 193.129 26.1478 192.331 26.1478C191.559 26.1478 190.934 26.068 190.455 25.9084C190.535 25.5892 190.575 25.2965 190.575 25.0305C190.575 23.9398 190.189 23.3945 189.418 23.3945C188.247 23.3945 187.143 24.5783 186.106 26.9458C185.095 29.2868 184.417 31.4815 184.071 33.5298C184.204 35.5249 184.47 37.3206 184.869 38.9167ZM197.4 19.5638C198.251 19.3244 199.102 19.2047 199.953 19.2047C200.831 19.2047 201.576 19.4707 202.188 20.0028C202.8 20.5348 203.106 21.2264 203.106 22.0777C203.106 22.9024 202.959 24.3522 202.667 26.4271C202.401 28.4755 202.268 30.0716 202.268 31.2154C202.268 34.1948 202.547 36.7619 203.106 38.9167C202.281 39.2359 201.39 39.3955 200.432 39.3955C199.475 39.3955 198.716 39.1827 198.158 38.7571C197.599 38.3048 197.32 37.6664 197.32 36.8417C197.32 35.9905 197.479 34.6072 197.799 32.6918C198.118 30.7765 198.277 29.1937 198.277 27.9434C198.277 24.6182 197.985 21.825 197.4 19.5638ZM197.918 10.5458C198.849 10.1202 199.767 9.90736 200.672 9.90736C201.576 9.90736 202.241 10.1468 202.667 10.6256C203.119 11.0778 203.345 11.7562 203.345 12.6607C203.345 13.5651 203.039 14.3632 202.427 15.0548C201.842 15.7465 201.071 16.0923 200.113 16.0923C198.144 16.0923 197.16 15.0681 197.16 13.0198C197.16 12.1153 197.413 11.2907 197.918 10.5458ZM207.849 9.94727C208.701 9.62804 209.579 9.46843 210.483 9.46843C211.387 9.46843 212.132 9.77435 212.718 10.3862C213.329 10.9714 213.635 11.7828 213.635 12.8203C213.635 13.8311 213.489 15.8795 213.196 18.9653C212.93 22.0245 212.797 24.432 212.797 26.1877C212.797 30.5238 213.103 34.7668 213.715 38.9167C212.864 39.2359 211.959 39.3955 211.002 39.3955C208.953 39.3955 207.929 38.3979 207.929 36.4028C207.929 35.4451 208.076 33.5697 208.368 30.7765C208.661 27.9567 208.807 25.6956 208.807 23.993C208.807 18.3268 208.488 13.6449 207.849 9.94727ZM230.776 9.94727C231.627 9.62804 232.505 9.46843 233.409 9.46843C234.314 9.46843 235.059 9.77435 235.644 10.3862C236.229 10.9714 236.522 11.7163 236.522 12.6208C236.522 13.4986 236.389 15.6002 236.123 18.9254C235.857 22.224 235.724 25.4827 235.724 28.7016C235.724 31.8938 236.043 35.2988 236.681 38.9167C235.724 39.2359 234.726 39.3955 233.689 39.3955C231.933 39.3955 231.055 38.1585 231.055 35.6846C231.055 34.8599 231.228 33.3835 231.574 31.2553C230.457 33.6229 229.459 35.3786 228.581 36.5225C227.73 37.6664 226.892 38.4777 226.067 38.9566C225.269 39.4088 224.418 39.6349 223.513 39.6349C221.492 39.6349 219.935 38.8901 218.845 37.4004C217.781 35.9107 217.249 34.0751 217.249 31.8938C217.249 29.7124 217.634 27.6641 218.406 25.7488C219.204 23.8068 220.388 22.1974 221.957 20.9205C223.553 19.617 225.243 18.9653 227.025 18.9653C228.807 18.9653 230.35 19.2047 231.654 19.6835C231.6 16.2519 231.308 13.0065 230.776 9.94727ZM231.654 23.0753C230.35 22.5964 228.94 22.357 227.424 22.357C225.908 22.357 224.604 22.796 223.513 23.6738C222.609 25.8286 222.157 28.236 222.157 30.8962C222.157 32.1199 222.33 33.2904 222.675 34.4077C223.021 35.5249 223.593 36.0836 224.391 36.0836C225.615 36.0836 226.998 34.7136 228.541 31.9736C230.111 29.2336 231.148 26.2675 231.654 23.0753ZM247.639 39.8743C244.713 39.8743 242.558 39.0231 241.175 37.3206C239.792 35.5914 239.1 33.1973 239.1 30.1381C239.1 27.0523 240.018 24.3788 241.853 22.1176C243.689 19.8565 246.043 18.7259 248.916 18.7259C254.822 18.7259 257.775 22.0511 257.775 28.7016C257.775 31.814 256.817 34.4609 254.902 36.6422C252.986 38.797 250.566 39.8743 247.639 39.8743ZM244.766 23.1152C244.288 24.6581 244.048 26.201 244.048 27.7439C244.048 29.2868 244.101 30.4839 244.208 31.3351C244.314 32.1864 244.514 33.0377 244.806 33.8889C245.418 35.618 246.615 36.4826 248.397 36.4826C250.206 36.4826 251.39 36.0038 251.949 35.0461C252.534 34.0884 252.827 32.612 252.827 30.6169C252.827 24.9507 251.483 22.1176 248.797 22.1176C247.254 22.1176 245.91 22.4501 244.766 23.1152ZM126.453 62.2991L126.254 68.8831C126.254 72.5009 126.36 75.7463 126.573 78.6193C126.786 81.4657 127.265 84.5648 128.01 87.9167C127.424 88.3955 126.493 88.6349 125.216 88.6349C122.742 88.6349 121.505 87.5575 121.505 85.4028C121.505 83.6205 121.585 80.8938 121.745 77.2227C121.931 73.5517 122.024 70.6787 122.024 68.6037C120.588 70.6787 119.071 73.2458 117.475 76.305C115.906 79.3376 115.121 81.1997 115.121 81.8914C115.121 82.583 115.188 83.115 115.321 83.4875C114.735 83.8599 113.951 84.0461 112.966 84.0461C112.009 84.0461 111.197 83.7801 110.532 83.2481C109.894 82.716 109.348 81.9845 108.896 81.0534C108.471 80.1223 107.699 78.3001 106.582 75.5867C105.491 72.8467 104.494 70.4925 103.589 68.5239C102.897 72.8068 102.552 76.5976 102.552 79.8962C102.552 83.1948 102.658 85.8683 102.871 87.9167C102.02 88.2359 101.168 88.3955 100.317 88.3955C98.6146 88.3955 97.7633 87.5442 97.7633 85.8417C97.7633 84.5382 98.0559 81.9446 98.6412 78.0607C99.253 74.1502 99.5589 70.8516 99.5589 68.1648C99.5589 65.478 99.4126 62.9641 99.12 60.6232C100.556 60.2508 101.674 60.0645 102.472 60.0645C103.935 60.0645 104.919 60.5833 105.425 61.6208C106.223 63.2967 107.393 65.9702 108.936 69.6412C110.506 73.2857 111.782 76.0922 112.767 78.0607C113.033 77.5021 113.645 76.305 114.602 74.4694C115.587 72.6073 116.398 71.0245 117.036 69.721C117.701 68.3909 118.366 66.8214 119.031 65.0125C119.723 63.177 120.162 61.5808 120.348 60.2242C121.306 59.9581 122.237 59.8251 123.141 59.8251C124.073 59.8251 124.857 60.0246 125.496 60.4237C126.134 60.8227 126.453 61.4478 126.453 62.2991ZM135.444 79.3376C135.444 81.2529 135.75 82.7692 136.361 83.8865C136.973 84.9772 137.997 85.5225 139.434 85.5225C140.87 85.5225 141.988 85.0437 142.786 84.086C143.61 83.1017 144.023 81.918 144.023 80.5347C144.927 80.5347 145.712 80.7608 146.377 81.213C147.042 81.6652 147.375 82.2904 147.375 83.0884C147.375 84.7378 146.497 86.1211 144.741 87.2383C142.985 88.329 141.136 88.8743 139.195 88.8743C136.162 88.8743 133.967 88.063 132.611 86.4403C131.254 84.791 130.576 82.3569 130.576 79.1381C130.576 75.9192 131.48 73.2192 133.289 71.0378C135.124 68.8299 137.559 67.7259 140.591 67.7259C142.666 67.7259 144.329 68.2047 145.579 69.1624C146.856 70.0934 147.494 71.5565 147.494 73.5517C147.494 75.5202 146.59 77.0099 144.781 78.0208C142.999 79.0051 140.817 79.4972 138.237 79.4972C137.332 79.4972 136.401 79.444 135.444 79.3376ZM135.484 76.1853C136.282 76.3449 137.12 76.4247 137.997 76.4247C139.913 76.4247 141.522 76.0656 142.826 75.3473C142.985 74.7089 143.065 74.2034 143.065 73.831C143.065 72.8999 142.733 72.195 142.068 71.7162C141.402 71.2373 140.485 70.9979 139.314 70.9979C138.17 70.9979 137.133 71.3703 136.202 72.1152C135.723 73.4985 135.484 74.8552 135.484 76.1853ZM157.124 87.9167C156.299 88.2359 155.421 88.3955 154.49 88.3955C153.559 88.3955 152.801 88.1827 152.216 87.7571C151.657 87.3048 151.378 86.693 151.378 85.9215C151.378 85.1235 151.498 83.687 151.737 81.612C151.977 79.5371 152.096 77.5287 152.096 75.5867C152.096 73.6182 151.79 71.3171 151.178 68.6835C152.03 68.3643 152.868 68.2047 153.692 68.2047C154.517 68.2047 155.222 68.484 155.807 69.0427C156.419 69.6013 156.725 70.3462 156.725 71.2772C156.725 71.7561 156.645 72.4743 156.486 73.432C156.326 74.363 156.233 75.068 156.206 75.5468C157.244 73.1793 158.467 71.3304 159.877 70.0003C161.314 68.6436 162.737 67.9653 164.147 67.9653C165.131 67.9653 165.916 68.3111 166.501 69.0028C167.086 69.6944 167.379 70.5723 167.379 71.6363C167.379 72.6738 167.113 73.5251 166.581 74.1901C166.049 74.8286 165.384 75.1478 164.586 75.1478C163.814 75.1478 163.189 75.068 162.71 74.9084C162.79 74.5892 162.83 74.2965 162.83 74.0305C162.83 72.9398 162.444 72.3945 161.673 72.3945C160.502 72.3945 159.398 73.5783 158.361 75.9458C157.35 78.2868 156.672 80.4815 156.326 82.5298C156.459 84.5249 156.725 86.3206 157.124 87.9167ZM177.436 88.8743C174.589 88.8743 172.408 88.1162 170.892 86.5999C169.375 85.0836 168.617 82.9022 168.617 80.0558C168.617 76.5976 169.588 73.6847 171.53 71.3171C173.472 68.923 176.052 67.7259 179.271 67.7259C181.107 67.7259 182.596 68.0983 183.74 68.8432C184.884 69.5614 185.456 70.6388 185.456 72.0753C185.456 73.0063 185.084 73.8443 184.339 74.5892C183.594 75.3074 182.756 75.6665 181.825 75.6665C181.612 75.6665 181.346 75.6399 181.027 75.5867C181.107 75.2409 181.147 74.935 181.147 74.669C181.147 73.7113 180.894 72.8999 180.389 72.2349C179.883 71.5698 179.045 71.2373 177.875 71.2373C176.704 71.2373 175.613 71.7162 174.603 72.6738C173.884 74.5359 173.525 76.8636 173.525 79.6568C173.525 83.4609 174.962 85.3629 177.835 85.3629C179.378 85.3629 180.522 84.8708 181.266 83.8865C182.038 82.8756 182.424 81.745 182.424 80.4948C183.328 80.4948 184.113 80.7209 184.778 81.1731C185.443 81.6253 185.775 82.2505 185.775 83.0485C185.775 84.7777 184.884 86.1876 183.102 87.2782C181.346 88.3423 179.457 88.8743 177.436 88.8743ZM207.526 69.6013C206.808 72.6605 206.449 75.733 206.449 78.8188C206.449 81.8781 206.795 84.9107 207.486 87.9167C206.529 88.2359 205.544 88.3955 204.533 88.3955C203.523 88.3955 202.818 88.1029 202.419 87.5176C202.02 86.9058 201.82 86.0412 201.82 84.924C201.82 83.7801 201.993 82.2239 202.339 80.2553C200.45 84.2988 198.628 86.8526 196.872 87.9167C196.074 88.3955 195.249 88.6349 194.398 88.6349C192.376 88.6349 190.807 87.8901 189.69 86.4004C188.572 84.8841 188.014 83.0086 188.014 80.7741C188.014 77.369 188.958 74.3896 190.847 71.8359C192.736 69.2555 195.183 67.9653 198.189 67.9653C201.222 67.9653 204.334 68.5106 207.526 69.6013ZM202.299 71.9955C200.889 71.5698 199.692 71.357 198.708 71.357C196.712 71.357 195.223 71.796 194.239 72.6738C193.334 74.9084 192.882 77.1828 192.882 79.4972C192.882 80.7209 193.068 81.9579 193.44 83.2081C193.839 84.4584 194.438 85.0836 195.236 85.0836C196.167 85.0836 197.364 83.7136 198.827 80.9736C200.29 78.2336 201.448 75.2409 202.299 71.9955ZM223.684 58.9473C224.535 58.628 225.413 58.4684 226.317 58.4684C227.222 58.4684 227.967 58.7744 228.552 59.3862C229.137 59.9714 229.43 60.7163 229.43 61.6208C229.43 62.4986 229.297 64.6002 229.031 67.9254C228.765 71.224 228.632 74.4827 228.632 77.7016C228.632 80.8938 228.951 84.2988 229.589 87.9167C228.632 88.2359 227.634 88.3955 226.597 88.3955C224.841 88.3955 223.963 87.1585 223.963 84.6846C223.963 83.8599 224.136 82.3835 224.482 80.2553C223.364 82.6229 222.367 84.3786 221.489 85.5225C220.638 86.6664 219.8 87.4777 218.975 87.9566C218.177 88.4088 217.326 88.6349 216.421 88.6349C214.4 88.6349 212.843 87.8901 211.753 86.4004C210.689 84.9107 210.157 83.0751 210.157 80.8938C210.157 78.7124 210.542 76.6641 211.314 74.7488C212.112 72.8068 213.296 71.1974 214.865 69.9205C216.461 68.617 218.15 67.9653 219.933 67.9653C221.715 67.9653 223.258 68.2047 224.562 68.6835C224.508 65.2519 224.216 62.0065 223.684 58.9473ZM224.562 72.0753C223.258 71.5964 221.848 71.357 220.332 71.357C218.816 71.357 217.512 71.796 216.421 72.6738C215.517 74.8286 215.065 77.236 215.065 79.8962C215.065 81.1199 215.238 82.2904 215.583 83.4077C215.929 84.5249 216.501 85.0836 217.299 85.0836C218.523 85.0836 219.906 83.7136 221.449 80.9736C223.019 78.2336 224.056 75.2675 224.562 72.0753ZM240.547 88.8743C237.621 88.8743 235.466 88.0231 234.083 86.3206C232.7 84.5914 232.008 82.1973 232.008 79.1381C232.008 76.0523 232.926 73.3788 234.761 71.1176C236.597 68.8565 238.951 67.7259 241.824 67.7259C247.73 67.7259 250.683 71.0511 250.683 77.7016C250.683 80.814 249.725 83.4609 247.81 85.6422C245.894 87.797 243.473 88.8743 240.547 88.8743ZM237.674 72.1152C237.195 73.6581 236.956 75.201 236.956 76.7439C236.956 78.2868 237.009 79.4839 237.116 80.3351C237.222 81.1864 237.422 82.0377 237.714 82.8889C238.326 84.618 239.523 85.4826 241.305 85.4826C243.114 85.4826 244.298 85.0038 244.857 84.0461C245.442 83.0884 245.735 81.612 245.735 79.6169C245.735 73.9507 244.391 71.1176 241.704 71.1176C240.162 71.1176 238.818 71.4501 237.674 72.1152ZM257.372 81.1332C257.292 81.5056 257.252 81.8116 257.252 82.051C257.252 83.1416 257.572 83.9796 258.21 84.5648C258.875 85.1501 259.753 85.4427 260.844 85.4427C261.961 85.4427 262.879 85.2432 263.597 84.8442C264.342 84.4185 264.714 83.7934 264.714 82.9687C264.714 82.1441 264.315 81.4923 263.517 81.0135C262.746 80.5081 261.801 80.109 260.684 79.8164C259.593 79.5238 258.489 79.2046 257.372 78.8587C256.255 78.4863 255.297 77.9144 254.499 77.1429C253.728 76.3715 253.342 75.4005 253.342 74.23C253.342 72.3945 254.313 70.8516 256.255 69.6013C258.197 68.351 260.232 67.7259 262.36 67.7259C264.701 67.7259 266.483 68.2047 267.707 69.1624C268.425 69.721 268.784 70.4659 268.784 71.3969C268.784 72.3014 268.425 73.0462 267.707 73.6315C267.015 74.1901 266.164 74.4694 265.153 74.4694C264.94 74.4694 264.674 74.4428 264.355 74.3896C264.435 74.0438 264.475 73.7379 264.475 73.4719C264.475 72.7004 264.182 72.1152 263.597 71.7162C263.012 71.3171 262.214 71.1176 261.203 71.1176C260.219 71.1176 259.314 71.3171 258.489 71.7162C258.17 72.1418 258.011 72.6871 258.011 73.3522C258.011 74.0172 258.396 74.5625 259.168 74.9882C259.939 75.3872 260.87 75.7463 261.961 76.0656C263.078 76.3582 264.196 76.704 265.313 77.103C266.43 77.4755 267.374 78.074 268.146 78.8986C268.917 79.6967 269.303 80.7076 269.303 81.9313C269.303 83.9264 268.306 85.589 266.31 86.9191C264.342 88.2226 262.307 88.8743 260.205 88.8743C258.104 88.8743 256.361 88.5019 254.978 87.7571C253.621 86.9856 252.943 85.8284 252.943 84.2855C252.943 83.3279 253.289 82.5564 253.98 81.9712C254.699 81.3593 255.563 81.0534 256.574 81.0534C256.787 81.0534 257.053 81.08 257.372 81.1332Z" fill="white"/>
<g clip-path="url(#clip0)">
<path fill-rule="evenodd" clip-rule="evenodd" d="M14.4605 18.1363H74.0791C77.977 18.1363 77.7661 19.7147 77.4275 23.7404L75.2101 52.0033C74.8331 56.5082 75.1526 55.4155 70.3793 56.0992L26.5312 61.6777L28.8508 68.4064C47.8738 68.4064 57.069 68.4064 76.0792 68.4064C76.7182 70.7962 77.5872 74.6877 78.2262 77.3523H70.3793L69.6253 74.6302C53.7781 74.6302 47.7396 74.6302 31.886 74.6302C23.2276 74.4832 24.0966 76.8284 22.0199 69.3457L7.144 15.2672H0V10.085H12.5308C13.1123 12.2639 13.9174 15.9318 14.4605 18.1363ZM34.3078 76.4897C37.6498 76.4897 40.3655 79.2054 40.3655 82.5474C40.3655 85.8957 37.6562 88.6051 34.3078 88.6051C30.9595 88.6051 28.2501 85.8957 28.2501 82.5474C28.2501 79.2054 30.9595 76.4897 34.3078 76.4897ZM59.2927 76.4897C62.6346 76.4897 65.3504 79.2054 65.3504 82.5474C65.3504 85.8957 62.6346 88.6051 59.2927 88.6051C55.9443 88.6051 53.235 85.8957 53.235 82.5474C53.235 79.2054 55.9443 76.4897 59.2927 76.4897ZM19.6812 37.6066H29.33L25.8283 22.9672C22.3777 22.9672 18.9783 22.9608 15.6491 22.9608L16.8248 27.3443L16.8632 27.3379L19.6812 37.6066ZM30.87 22.9736L34.3717 37.6066H43.6628L40.1483 22.9863L30.87 22.9736ZM45.2028 22.9927L48.7172 37.6066H57.6057L54.104 23.0055L45.2028 22.9927ZM59.1585 23.0119L62.6602 37.613H71.5551L72.5391 25.881C72.8139 22.6093 73.389 23.0247 70.2196 23.0247C66.6028 23.0183 62.903 23.0119 59.1585 23.0119ZM71.2419 41.3256H63.5484L66.0852 51.9074L66.7115 51.8243C70.5902 51.2684 70.3346 52.1566 70.6413 48.4952L71.2419 41.3256ZM61.1969 52.5784L58.5003 41.3256H49.6182L52.6024 53.7477L61.1969 52.5784ZM47.7076 54.4123L44.5574 41.3192H35.2599L38.6914 55.6392L47.7076 54.4123ZM33.803 56.3101L30.2182 41.3256H20.7036L25.151 57.4923L33.803 56.3101Z" fill="white"/>
</g>
<defs>
<clipPath id="clip0">
<rect width="78.2326" height="78.5201" fill="white" transform="translate(0 10.085)"/>
</clipPath>
</defs>
</svg>
