<svg width="38" height="38" viewBox="0 0 38 38" fill="none" xmlns="http://www.w3.org/2000/svg">
<path d="M35.6466 8.92531C34.3652 10.7599 32.7664 12.3508 30.9256 13.6233L30.9256 13.6233C30.8092 16.8413 29.8698 19.9757 28.1973 22.7273C26.5247 25.4789 24.1748 27.756 21.3718 29.341C18.5688 30.926 15.4064 31.7661 12.1863 31.7811C8.96628 31.7961 5.79613 30.9854 2.97852 29.4266L2.97947 29.4249C6.65881 29.3739 10.2417 28.2409 13.2814 26.1672L13.2813 26.1674C10.0274 23.9496 7.54916 20.7692 6.19397 17.0719C4.83877 13.3747 4.67459 9.34604 5.72445 5.55078L5.72439 5.55082C7.22807 7.86652 9.22258 9.82323 11.5666 11.2823C13.9107 12.7414 16.5469 13.6672 19.2885 13.9941L19.2881 13.9942C18.9994 12.6179 19.2129 11.1837 19.89 9.9512C20.5671 8.71869 21.663 7.76928 22.9795 7.27479C24.2959 6.7803 25.7459 6.77341 27.067 7.25537C28.3881 7.73732 29.493 8.67628 30.1818 9.9023L30.1818 9.90295C32.0415 9.84745 33.883 9.51803 35.6466 8.92531" stroke="white" stroke-width="2.35417" stroke-linecap="round" stroke-linejoin="round"/>
</svg>
